<svg xmlns="http://www.w3.org/2000/svg" width="760" height="500" viewBox="0 0 760 500" font-family="sans-serif">
  <rect width="760" height="500" fill="white"/>
  <text x="380.0" y="26" font-size="16" font-weight="bold" text-anchor="middle" fill="#111">SpacetimeDB 2.6.1: view vs table subscription round-trip latency</text>
  <text x="380.0" y="44" font-size="12" text-anchor="middle" fill="#555">avg round-trip latency vs table row count &#8212; one line per complete run; 9 view, 3 table</text>
  <line x1="78" y1="54" x2="78" y2="428" stroke="#333" stroke-width="1.2"/>
  <line x1="78" y1="428" x2="550" y2="428" stroke="#333" stroke-width="1.2"/>
  <line x1="73" y1="428.0" x2="78" y2="428.0" stroke="#333" stroke-width="1"/>
  <line x1="78" y1="428.0" x2="550" y2="428.0" stroke="#eee" stroke-width="1"/>
  <text x="69" y="432.0" font-size="12" text-anchor="end" fill="#333">0</text>
  <line x1="73" y1="339.0" x2="78" y2="339.0" stroke="#333" stroke-width="1"/>
  <line x1="78" y1="339.0" x2="550" y2="339.0" stroke="#eee" stroke-width="1"/>
  <text x="69" y="343.0" font-size="12" text-anchor="end" fill="#333">1000</text>
  <line x1="73" y1="249.9" x2="78" y2="249.9" stroke="#333" stroke-width="1"/>
  <line x1="78" y1="249.9" x2="550" y2="249.9" stroke="#eee" stroke-width="1"/>
  <text x="69" y="253.9" font-size="12" text-anchor="end" fill="#333">2000</text>
  <line x1="73" y1="160.9" x2="78" y2="160.9" stroke="#333" stroke-width="1"/>
  <line x1="78" y1="160.9" x2="550" y2="160.9" stroke="#eee" stroke-width="1"/>
  <text x="69" y="164.9" font-size="12" text-anchor="end" fill="#333">3000</text>
  <line x1="73" y1="71.8" x2="78" y2="71.8" stroke="#333" stroke-width="1"/>
  <line x1="78" y1="71.8" x2="550" y2="71.8" stroke="#eee" stroke-width="1"/>
  <text x="69" y="75.8" font-size="12" text-anchor="end" fill="#333">4000</text>
  <line x1="78.0" y1="428" x2="78.0" y2="433" stroke="#333" stroke-width="1"/>
  <text x="78.0" y="448" font-size="12" text-anchor="middle" fill="#333">0</text>
  <line x1="172.4" y1="428" x2="172.4" y2="433" stroke="#333" stroke-width="1"/>
  <text x="172.4" y="448" font-size="12" text-anchor="middle" fill="#333">2000</text>
  <line x1="266.8" y1="428" x2="266.8" y2="433" stroke="#333" stroke-width="1"/>
  <text x="266.8" y="448" font-size="12" text-anchor="middle" fill="#333">4000</text>
  <line x1="361.2" y1="428" x2="361.2" y2="433" stroke="#333" stroke-width="1"/>
  <text x="361.2" y="448" font-size="12" text-anchor="middle" fill="#333">6000</text>
  <line x1="455.6" y1="428" x2="455.6" y2="433" stroke="#333" stroke-width="1"/>
  <text x="455.6" y="448" font-size="12" text-anchor="middle" fill="#333">8000</text>
  <line x1="550.0" y1="428" x2="550.0" y2="433" stroke="#333" stroke-width="1"/>
  <text x="550.0" y="448" font-size="12" text-anchor="middle" fill="#333">10000</text>
  <text x="314.0" y="476" font-size="13" text-anchor="middle" fill="#222">table row count &#8212; rows</text>
  <text x="20" y="241.0" font-size="13" text-anchor="middle" fill="#222" transform="rotate(-90 20 241)">avg round-trip latency &#8212; ms</text>
  <polyline fill="none" stroke="#c8321e" stroke-width="1.6" stroke-opacity="0.85" points="125.2,427.1 172.4,427.0 219.6,427.0 266.8,427.0 314.0,427.0 361.2,427.0 408.4,427.0 455.6,427.0 502.8,427.1 550.0,427.0"/>
  <polyline fill="none" stroke="#c8321e" stroke-width="1.6" stroke-opacity="0.85" points="125.2,427.1 172.4,427.0 219.6,427.0 266.8,427.0 314.0,427.0 361.2,427.0 408.4,427.0 455.6,426.9 502.8,427.0 550.0,427.0"/>
  <polyline fill="none" stroke="#c8321e" stroke-width="1.6" stroke-opacity="0.85" points="125.2,427.2 172.4,427.0 219.6,427.0 266.8,427.0 314.0,427.0 361.2,427.0 408.4,427.0 455.6,427.0 502.8,426.9 550.0,426.9"/>
  <polyline fill="none" stroke="#1f5fbf" stroke-width="1.6" stroke-opacity="0.85" points="125.2,413.5 172.4,373.5 219.6,335.2 266.8,297.9 314.0,260.2 361.2,221.8 408.4,184.4 455.6,147.2 502.8,108.9 550.0,72.3"/>
  <polyline fill="none" stroke="#1f5fbf" stroke-width="1.6" stroke-opacity="0.85" points="125.2,413.4 172.4,373.8 219.6,335.5 266.8,296.2 314.0,255.1 361.2,217.6 408.4,179.8 455.6,142.0 502.8,108.2 550.0,68.4"/>
  <polyline fill="none" stroke="#1f5fbf" stroke-width="1.6" stroke-opacity="0.85" points="125.2,413.2 172.4,372.4 219.6,333.8 266.8,296.0 314.0,257.4 361.2,220.4 408.4,182.9 455.6,144.3 502.8,105.8 550.0,67.8"/>
  <polyline fill="none" stroke="#1f5fbf" stroke-width="1.6" stroke-opacity="0.85" points="125.2,413.5 172.4,373.6 219.6,335.2 266.8,297.7 314.0,259.7 361.2,222.7 408.4,185.2 455.6,147.5 502.8,109.9 550.0,70.5"/>
  <polyline fill="none" stroke="#1f5fbf" stroke-width="1.6" stroke-opacity="0.85" points="125.2,413.4 172.4,373.5 219.6,335.3 266.8,297.6 314.0,260.0 361.2,222.2 408.4,184.5 455.6,146.1 502.8,108.9 550.0,71.2"/>
  <polyline fill="none" stroke="#1f5fbf" stroke-width="1.6" stroke-opacity="0.85" points="125.2,413.6 172.4,373.7 219.6,335.3 266.8,297.8 314.0,260.0 361.2,222.3 408.4,183.8 455.6,147.3 502.8,106.0 550.0,72.3"/>
  <polyline fill="none" stroke="#1f5fbf" stroke-width="1.6" stroke-opacity="0.85" points="125.2,413.1 172.4,371.7 219.6,332.8 266.8,294.8 314.0,256.2 361.2,221.5 408.4,181.8 455.6,144.2 502.8,105.5 550.0,67.2"/>
  <polyline fill="none" stroke="#1f5fbf" stroke-width="1.6" stroke-opacity="0.85" points="125.2,413.2 172.4,372.9 219.6,334.5 266.8,297.0 314.0,258.0 361.2,220.4 408.4,182.5 455.6,145.1 502.8,105.6 550.0,66.4"/>
  <polyline fill="none" stroke="#1f5fbf" stroke-width="1.6" stroke-opacity="0.85" points="125.2,413.5 172.4,373.5 219.6,335.1 266.8,297.2 314.0,259.6 361.2,221.3 408.4,183.8 455.6,146.8 502.8,108.4 550.0,68.4"/>
  <text x="276.24" y="411.0" font-size="12" font-weight="bold" fill="#c8321e">table &#8776; 10&#8211;11 ms &#8212; near-flat, not zero</text>
  <line x1="280.24" y1="415.0" x2="256.24" y2="425.0" stroke="#c8321e" stroke-width="0.8"/>
  <rect x="574" y="74" width="14" height="3" fill="#1f5fbf"/>
  <text x="594" y="80" font-size="12" fill="#222">view subscription &#8212; 9 runs</text>
  <rect x="574" y="96" width="14" height="3" fill="#c8321e"/>
  <text x="594" y="102" font-size="12" fill="#222">table subscription &#8212; 3 runs</text>
  <text x="574" y="136" font-size="10.5" fill="#666">Source: view-latency-2.6.1.csv</text>
  <text x="574" y="152" font-size="10.5" fill="#666">avg_ms; linear axes</text>
  <text x="574" y="176" font-size="10.5" fill="#666">Absolute values are</text>
  <text x="574" y="190" font-size="10.5" fill="#666">regime/host-specific.</text>
</svg>